# xmcd
#
# Track frame offsets:
#	150
#	16410
#	30072
#	42212
#	74547
#	88869
#	102717
#	106354
#	119714
#	136544
#	153821
#	163935
#	178498
#	193955
#	200008
#	212967
#	224378
#	240953
#	259871
#
# Disc length: 3645
#
# Revision: 1
# Processed by: cddbd v1.5.1PL0 Copyright (c) Steve Scherf et al.
# Submitted via: FreeRIP 2.92 
# Normalized: r0:TRMNUM
#
DISCID=1c0e3b13
DTITLE=Ol dirty Bastardt - Pop Shots
DYEAR=1900
DGENRE=
TTITLE0=Fuck South Side
TTITLE1=Pop Shots ( Clinton Sparks RMX)
TTITLE2=Fire ( Dirty, Dirty Alt. Version)
TTITLE3=Move Back
TTITLE4=Fuck Y"all
TTITLE5=Caked Up
TTITLE6=Rahzel Skit 2
TTITLE7=Down South
TTITLE8=Pussy Keep Calling
TTITLE9=If, Y"all Want War
TTITLE10=Dont Stop ma ( Out of Control)
TTITLE11=Stand Up
TTITLE12=Dirty Run
TTITLE13=Rahzel Skit 1
TTITLE14=High In The Clouds
TTITLE15=Who CAn Make It Happen Like Di
TTITLE16=Go, Go, Go
TTITLE17=Dirty, Dirty
TTITLE18=Even if
EXTD=feiner Stoff !!!
EXTT0=
EXTT1=
EXTT2=
EXTT3=
EXTT4=
EXTT5=
EXTT6=
EXTT7=
EXTT8=
EXTT9=
EXTT10=
EXTT11=
EXTT12=
EXTT13=
EXTT14=
EXTT15=
EXTT16=
EXTT17=
EXTT18=
PLAYORDER=
